<?xml version="1.0" encoding="utf-8"?>
<!-- Generator: Adobe Illustrator 21.0.0, SVG Export Plug-In . SVG Version: 6.00 Build 0)  -->
<svg version="1.1" id="Pouch" xmlns="http://www.w3.org/2000/svg" xmlns:xlink="http://www.w3.org/1999/xlink" x="0px" y="0px"
	 viewBox="0 0 30 32" style="enable-background:new 0 0 30 32;" xml:space="preserve">
<style type="text/css">
	.st0{fill-rule:evenodd;clip-rule:evenodd;fill:#FFFFFF;}
</style>
<path class="st0" d="M27.7,32H2.3C1,32,0,31,0,29.7V4.5c0-1.3,1-2.3,2.3-2.3h2.3v4.6h5.8V2.2h9.2v4.6h5.8V2.2h2.3
	c1.3,0,2.3,1,2.3,2.3v25.2C30,31,29,32,27.7,32z M27.7,10.2H2.3v19.5h25.4V10.2z M8.1,21.7H4.6v-3.4h3.5V21.7z M8.1,27.4H4.6V24h3.5
	V27.4z M13.8,16h-3.5v-3.4h3.5V16z M13.8,21.7h-3.5v-3.4h3.5V21.7z M13.8,27.4h-3.5V24h3.5V27.4z M19.6,16h-3.5v-3.4h3.5V16z
	 M19.6,21.7h-3.5v-3.4h3.5V21.7z M25.4,16h-3.5v-3.4h3.5V16z M25.4,21.7h-3.5v-3.4h3.5V21.7z M20.8,0h3.5v5.7h-3.5V0z M5.8,0h3.5
	v5.7H5.8V0z"/>
</svg>
