<svg xmlns="http://www.w3.org/2000/svg" xmlns:xlink="http://www.w3.org/1999/xlink" preserveAspectRatio="xMidYMid" width="259" height="119" viewBox="0 0 259 119">
  <defs>
    <style>
      .cls-1 {
        fill: #fff;
      }

      .cls-1, .cls-2 {
        fill-rule: evenodd;
      }

      .cls-2 {
        fill: #2a3040;
      }
    </style>
  </defs>
  <path d="M147.854,21.825 C147.085,23.222 144.934,24.654 142.901,24.349 C141.815,25.397 140.586,26.186 140.056,26.506 C140.176,27.189 140.257,27.881 140.257,28.586 C140.257,28.747 140.249,28.912 140.242,29.076 C140.240,29.094 140.236,29.202 140.234,29.220 L140.108,30.439 C139.894,31.833 139.472,33.136 138.844,34.348 L139.691,41.960 C139.696,41.992 139.697,42.031 139.697,42.063 C139.697,43.826 137.365,44.996 135.824,44.996 L134.440,44.996 C132.812,44.996 131.483,43.721 131.444,42.136 L131.278,41.037 C128.610,41.858 124.454,41.969 121.702,41.061 L121.581,42.123 C121.550,43.713 120.216,44.998 118.582,44.998 L116.321,44.998 C114.668,44.998 113.324,43.680 113.324,42.064 C113.324,42.010 113.329,41.960 113.338,41.908 L114.007,37.980 C110.972,38.135 108.090,36.934 106.123,34.761 L103.444,34.048 C102.327,33.746 101.647,33.029 101.610,32.117 L101.000,28.083 C100.993,28.039 100.992,27.994 100.992,27.948 C100.992,27.396 101.225,26.399 102.809,25.944 L104.443,25.301 C105.520,22.714 107.763,20.733 110.522,19.880 L108.411,15.919 C108.339,15.784 108.302,15.637 108.302,15.485 C108.302,14.531 109.015,13.688 109.997,13.475 C110.063,13.465 110.234,13.435 110.504,13.435 C111.400,13.435 116.113,15.467 117.889,18.372 C118.522,17.887 119.199,17.462 119.911,17.098 C120.378,16.855 120.959,17.027 121.205,17.486 C121.452,17.944 121.272,18.513 120.803,18.756 C119.853,19.246 118.970,19.866 118.186,20.590 C117.939,20.819 117.585,20.903 117.260,20.810 C116.931,20.717 116.680,20.458 116.600,20.135 C115.998,17.735 111.325,15.444 110.436,15.305 C110.438,15.309 110.395,15.312 110.373,15.312 C110.343,15.321 110.309,15.345 110.280,15.374 L112.784,20.074 C112.926,20.340 112.931,20.654 112.794,20.921 C112.660,21.191 112.403,21.379 112.103,21.432 C109.308,21.915 107.005,23.793 106.086,26.325 C105.994,26.584 105.793,26.784 105.537,26.886 L103.427,27.707 C103.076,27.809 102.948,27.901 102.908,27.939 L103.507,31.896 C103.516,31.940 103.518,31.985 103.518,32.032 C103.528,32.047 103.645,32.155 103.944,32.234 L106.905,33.026 C107.096,33.076 107.263,33.184 107.390,33.331 C109.195,35.461 112.113,36.500 114.980,35.978 C115.285,35.925 115.602,36.018 115.826,36.230 C116.049,36.445 116.150,36.756 116.101,37.055 L115.239,42.124 C115.273,42.678 115.744,43.118 116.317,43.118 L118.579,43.118 C119.178,43.118 119.662,42.644 119.662,42.060 C119.662,42.022 119.664,41.989 119.669,41.957 L119.942,39.575 C119.977,39.261 120.177,38.983 120.468,38.839 C120.760,38.701 121.106,38.713 121.387,38.877 C123.683,40.224 129.349,40.039 131.609,38.889 C131.882,38.747 132.211,38.747 132.485,38.889 C132.762,39.024 132.953,39.285 132.998,39.584 L133.348,41.926 C133.355,41.969 133.359,42.017 133.359,42.061 C133.359,42.645 133.842,43.120 134.440,43.120 L135.824,43.120 C136.659,43.120 137.722,42.441 137.778,42.089 L136.911,34.262 C136.889,34.074 136.928,33.887 137.018,33.720 C137.618,32.625 138.018,31.443 138.209,30.202 L138.330,29.029 C138.335,28.853 138.342,28.718 138.342,28.583 C138.342,25.001 136.496,21.603 133.405,19.500 C132.969,19.204 132.863,18.620 133.164,18.195 C133.467,17.767 134.063,17.661 134.497,17.960 C136.920,19.608 138.666,21.950 139.565,24.578 C139.981,24.307 140.517,23.925 141.050,23.470 C140.469,22.950 140.012,22.220 139.680,21.287 C138.928,19.169 139.383,18.062 139.897,17.514 C140.426,16.942 141.221,16.730 142.075,16.942 C143.340,17.245 144.441,18.385 144.813,19.785 C145.029,20.592 144.919,21.432 144.484,22.300 C145.239,21.992 145.905,21.411 146.171,20.933 C146.424,20.478 147.002,20.311 147.469,20.557 C147.934,20.801 148.107,21.370 147.854,21.825 ZM142.962,20.262 C142.743,19.434 142.120,18.883 141.618,18.759 C141.561,18.747 141.502,18.738 141.448,18.738 C141.386,18.738 141.339,18.749 141.313,18.776 C141.212,18.883 141.052,19.431 141.492,20.675 C141.719,21.320 142.014,21.801 142.369,22.106 C142.795,21.531 143.123,20.859 142.962,20.262 ZM127.767,18.079 C122.676,18.079 118.532,14.026 118.532,9.043 C118.532,4.056 122.676,0.002 127.767,0.002 C132.858,0.002 137.001,4.057 137.001,9.043 C137.001,14.028 132.857,18.079 127.767,18.079 ZM127.767,1.876 C123.732,1.876 120.447,5.088 120.447,9.043 C120.447,12.993 123.732,16.204 127.767,16.204 C131.803,16.204 135.086,12.993 135.086,9.043 C135.086,5.088 131.803,1.876 127.767,1.876 ZM131.063,10.755 C131.063,12.057 130.069,13.019 128.562,13.224 L128.562,13.744 C128.562,14.120 128.238,14.437 127.852,14.437 C127.466,14.437 127.140,14.120 127.140,13.744 L127.140,13.196 C126.277,13.070 125.484,12.726 124.723,12.140 C124.456,11.949 124.395,11.695 124.398,11.513 C124.398,11.105 124.744,10.773 125.168,10.773 C125.403,10.773 125.568,10.875 125.648,10.937 C126.162,11.366 126.647,11.625 127.178,11.746 L127.178,9.508 C125.903,9.179 124.680,8.600 124.680,7.010 C124.680,5.734 125.676,4.772 127.141,4.584 L127.141,4.529 C127.141,4.152 127.468,3.835 127.853,3.835 C128.240,3.835 128.564,4.152 128.564,4.529 L128.564,4.620 C129.220,4.730 129.799,4.968 130.400,5.373 C130.500,5.442 130.781,5.643 130.781,6.023 C130.781,6.436 130.437,6.764 130.001,6.764 C129.891,6.764 129.720,6.747 129.541,6.617 C129.202,6.375 128.866,6.202 128.530,6.100 L128.530,8.266 C130.277,8.705 131.063,9.478 131.063,10.755 ZM127.176,6.029 C126.604,6.148 126.251,6.488 126.251,6.955 C126.251,7.323 126.326,7.638 127.176,7.925 L127.176,6.029 ZM128.528,9.840 L128.528,11.797 C129.128,11.670 129.487,11.311 129.487,10.813 C129.487,10.454 129.407,10.130 128.528,9.840 Z" class="cls-1"/>
  <path d="M44.947,41.046 C44.689,42.032 43.031,42.928 41.155,43.380 C41.046,43.410 40.927,43.441 40.808,43.461 C40.361,43.561 39.905,43.622 39.458,43.662 C39.468,43.682 39.458,43.702 39.448,43.722 C39.408,44.024 39.220,44.276 38.932,44.386 C37.840,44.849 36.480,45.342 34.882,45.775 C34.485,45.875 34.088,45.976 33.671,46.076 C31.477,46.610 28.887,46.982 26.008,46.982 C21.968,46.982 18.534,46.237 16.072,45.493 C16.082,45.362 16.092,45.231 16.092,45.101 L16.092,44.577 L16.618,44.577 C17.283,44.577 17.908,44.437 18.484,44.185 C20.618,44.728 23.288,45.161 26.316,45.161 C29.363,45.161 32.053,44.718 34.277,44.135 C34.604,44.054 34.932,43.964 35.239,43.863 C36.182,43.591 37.016,43.290 37.751,42.998 C37.751,42.988 37.751,42.988 37.751,42.978 C37.751,40.251 37.691,36.167 36.887,33.380 C36.748,32.917 37.016,32.434 37.463,32.303 C37.919,32.162 38.396,32.434 38.525,32.887 C39.299,35.563 39.438,39.185 39.458,41.931 L39.458,41.972 C39.746,41.931 40.024,41.881 40.282,41.811 C40.421,41.781 40.560,41.750 40.689,41.710 C41.830,41.388 42.684,40.925 42.962,40.664 C42.942,32.585 42.009,25.794 31.686,24.094 C30.792,25.110 29.661,25.804 28.361,26.136 C28.202,26.196 28.033,26.237 27.864,26.267 C27.279,26.418 26.663,26.488 26.008,26.488 C23.765,26.488 21.879,25.653 20.529,24.053 C19.894,24.154 19.288,24.275 18.722,24.416 C18.514,24.456 18.305,24.516 18.117,24.577 C16.618,25.019 15.377,25.593 14.355,26.297 C13.819,25.864 13.193,25.532 12.509,25.361 C13.779,24.375 15.357,23.571 17.323,22.997 C17.511,22.947 17.690,22.886 17.879,22.836 C18.107,22.776 18.335,22.715 18.573,22.665 C19.358,22.464 20.191,22.303 21.085,22.182 C21.402,22.142 21.700,22.273 21.889,22.524 C22.941,23.943 24.430,24.667 26.316,24.667 C26.792,24.667 27.239,24.627 27.666,24.536 C27.775,24.506 27.884,24.486 27.993,24.446 C28.003,24.446 28.003,24.446 28.013,24.436 C28.976,24.094 29.780,23.480 30.435,22.605 C30.594,22.403 30.812,22.273 31.061,22.263 L31.070,22.263 C31.219,22.192 31.378,22.162 31.557,22.182 C43.954,23.892 44.987,32.303 44.987,40.774 C44.987,40.865 44.967,40.956 44.947,41.046 ZM26.326,21.246 C22.296,21.246 18.673,16.548 18.405,11.005 C18.256,8.007 19.189,5.210 20.946,3.338 C22.385,1.809 24.241,0.994 26.326,0.994 C30.921,0.994 34.257,5.189 34.257,10.954 C34.257,16.337 30.475,21.246 26.326,21.246 ZM26.326,2.735 C24.728,2.735 23.288,3.358 22.187,4.535 C20.747,6.065 19.993,8.389 20.112,10.914 C20.330,15.492 23.239,19.506 26.326,19.506 C29.194,19.506 32.540,15.773 32.540,10.954 C32.540,6.115 29.978,2.735 26.326,2.735 ZM13.114,30.030 L13.114,33.581 L16.618,33.581 C17.591,33.581 18.395,34.386 18.395,35.372 L18.395,39.758 C18.395,40.744 17.591,41.559 16.618,41.559 L13.114,41.559 L13.114,45.101 C13.114,46.087 12.320,46.902 11.347,46.902 L7.020,46.902 C6.047,46.902 5.243,46.087 5.243,45.101 L5.243,41.559 L1.749,41.559 C0.776,41.559 -0.028,40.744 -0.028,39.758 L-0.028,35.372 C-0.028,34.386 0.776,33.581 1.749,33.581 L5.243,33.581 L5.243,30.030 C5.243,29.044 6.047,28.229 7.020,28.229 L11.347,28.229 C12.320,28.229 13.114,29.044 13.114,30.030 ZM11.347,30.030 L7.020,30.030 L7.020,35.372 L1.749,35.372 L1.749,39.758 L7.020,39.758 L7.020,45.101 L11.347,45.101 L11.347,39.758 L16.618,39.758 L16.618,35.382 L11.347,35.382 L11.347,30.030 Z" class="cls-1"/>
  <path d="M88.889,27.564 C89.508,25.880 89.840,24.062 89.840,22.184 C89.840,13.763 83.156,6.912 74.948,6.912 C70.889,6.912 67.104,8.550 64.283,11.531 C63.853,11.985 63.456,12.460 63.065,12.981 C63.052,13.001 63.033,13.021 63.020,13.041 C62.779,13.369 62.550,13.716 62.336,14.057 C62.127,14.405 61.925,14.759 61.743,15.120 C60.635,17.292 60.055,19.691 60.055,22.184 C60.055,30.605 66.739,37.462 74.948,37.462 C75.456,37.462 75.964,37.435 76.459,37.389 C76.511,38.037 76.629,38.665 76.811,39.260 L76.818,39.260 C76.889,39.494 76.967,39.721 77.065,39.942 C77.091,40.015 77.124,40.082 77.156,40.149 C77.261,40.409 77.391,40.657 77.534,40.897 C77.671,41.145 77.821,41.379 77.984,41.606 C77.951,41.633 77.912,41.653 77.879,41.673 C75.195,43.484 72.049,44.460 68.746,44.460 C59.508,44.460 51.997,36.754 51.997,27.277 C51.997,21.282 54.954,15.828 59.925,12.667 C60.850,11.698 61.893,10.842 63.039,10.120 C66.199,6.819 70.427,5.001 74.948,5.001 C84.186,5.001 91.697,12.707 91.697,22.184 C91.697,24.336 91.319,26.421 90.589,28.353 C90.055,28.032 89.482,27.765 88.889,27.564 ZM55.860,19.591 C54.564,21.883 53.853,24.516 53.853,27.277 C53.853,35.698 60.537,42.548 68.746,42.548 C70.277,42.548 71.782,42.314 73.195,41.860 C72.752,41.893 72.296,41.913 71.847,41.913 C62.609,41.913 55.098,34.207 55.098,24.730 C55.098,22.959 55.358,21.235 55.860,19.591 ZM58.218,21.322 C58.218,21.275 58.218,21.228 58.225,21.181 C58.231,21.054 58.238,20.921 58.251,20.794 C58.257,20.720 58.264,20.653 58.270,20.587 C58.277,20.493 58.283,20.406 58.296,20.326 C58.303,20.266 58.309,20.212 58.316,20.166 C58.323,20.099 58.329,20.039 58.336,19.972 C58.349,19.892 58.355,19.805 58.368,19.731 C58.375,19.651 58.388,19.564 58.407,19.484 C58.407,19.464 58.407,19.444 58.414,19.417 C58.440,19.250 58.466,19.069 58.505,18.896 C58.511,18.829 58.524,18.755 58.544,18.695 C58.557,18.622 58.577,18.541 58.590,18.468 C58.603,18.381 58.622,18.301 58.648,18.221 C58.655,18.167 58.668,18.120 58.681,18.080 C58.687,18.047 58.694,18.013 58.707,17.987 C58.713,17.947 58.720,17.907 58.726,17.860 C58.733,17.846 58.740,17.833 58.740,17.813 C58.759,17.739 58.785,17.666 58.805,17.586 C58.805,17.579 58.805,17.572 58.805,17.572 C58.850,17.432 58.889,17.278 58.935,17.131 C57.645,19.417 56.954,22.030 56.954,24.730 C56.954,33.151 63.639,40.009 71.847,40.009 C73.365,40.009 74.857,39.775 76.277,39.320 C76.166,39.327 76.062,39.333 75.951,39.340 C75.912,39.347 75.879,39.347 75.834,39.347 C75.788,39.353 75.743,39.353 75.691,39.353 C75.443,39.367 75.195,39.374 74.948,39.374 C65.710,39.374 58.199,31.661 58.199,22.184 C58.199,21.897 58.205,21.609 58.218,21.322 ZM76.088,20.794 C78.746,21.629 81.756,22.578 81.730,26.227 C81.730,29.041 79.580,30.973 76.127,31.273 L75.977,31.287 L75.977,34.328 C75.977,34.662 75.723,34.922 75.404,34.922 L75.241,34.922 C74.928,34.922 74.668,34.662 74.668,34.334 L74.668,31.307 L74.518,31.300 C72.779,31.186 70.987,30.572 69.476,29.576 C69.046,29.288 68.948,29.188 68.948,29.188 L68.909,29.148 C68.498,28.807 68.355,28.119 68.596,27.631 C68.707,27.424 68.870,27.290 69.059,27.257 C69.241,27.223 69.443,27.277 69.619,27.417 C69.671,27.477 69.775,27.557 69.971,27.691 C71.345,28.694 72.954,29.315 74.492,29.435 L74.668,29.449 L74.668,22.344 L74.557,22.304 C71.619,21.415 69.189,20.406 69.189,17.098 C69.189,14.471 71.235,12.653 74.524,12.346 L74.668,12.333 L74.668,9.586 C74.668,9.265 74.928,9.004 75.241,9.004 L75.404,9.004 C75.717,9.004 75.977,9.265 75.977,9.592 L75.977,12.313 L76.127,12.319 C77.508,12.400 78.948,12.774 80.192,13.389 C80.296,13.435 80.361,13.462 80.401,13.482 L80.401,13.489 C80.720,13.676 80.915,14.044 80.915,14.445 C80.915,14.592 80.889,14.739 80.831,14.872 C80.733,15.093 80.570,15.253 80.355,15.334 C80.153,15.407 79.925,15.394 79.723,15.293 L79.664,15.267 C79.645,15.260 79.619,15.247 79.599,15.233 C78.251,14.545 76.980,14.298 76.153,14.211 L75.977,14.191 L75.977,20.754 L76.088,20.794 ZM75.977,29.429 L76.153,29.409 C78.375,29.155 79.697,28.005 79.697,26.334 C79.697,24.176 77.886,23.394 76.186,22.832 L75.977,22.759 L75.977,29.429 ZM74.668,14.217 L74.492,14.237 C72.414,14.445 71.215,15.414 71.215,16.897 C71.215,18.849 72.772,19.671 74.453,20.266 L74.668,20.339 L74.668,14.217 ZM85.922,28.410 C90.387,28.410 94.006,32.123 94.006,36.704 C94.006,41.284 90.387,44.998 85.922,44.998 C81.457,44.998 77.837,41.284 77.837,36.704 C77.837,32.123 81.457,28.410 85.922,28.410 ZM85.922,43.126 C89.374,43.126 92.182,40.245 92.182,36.704 C92.182,33.162 89.374,30.281 85.922,30.281 C82.470,30.281 79.661,33.162 79.661,36.704 C79.661,40.245 82.470,43.126 85.922,43.126 ZM82.844,35.925 L86.375,35.925 L84.733,34.234 C84.394,33.893 84.394,33.325 84.726,32.978 C85.065,32.643 85.625,32.643 85.958,32.978 L89.052,36.159 L89.091,36.192 C89.208,36.306 89.287,36.460 89.326,36.633 C89.332,36.680 89.339,36.720 89.339,36.767 C89.332,36.800 89.332,36.834 89.332,36.881 L89.319,36.988 C89.313,37.048 89.293,37.108 89.280,37.148 C89.234,37.262 89.169,37.362 89.085,37.442 L85.958,40.650 C85.632,40.984 85.052,40.984 84.733,40.650 C84.394,40.309 84.394,39.741 84.733,39.394 L86.368,37.709 L82.844,37.709 C82.368,37.709 81.977,37.308 81.977,36.814 C81.977,36.326 82.368,35.925 82.844,35.925 Z" class="cls-1"/>
  <path d="M182.998,25.000 L167.001,37.997 L167.001,29.872 L157.001,37.997 L157.001,12.003 L167.001,20.128 L167.001,12.003 L182.998,25.000 Z" class="cls-2"/>
  <path d="M11.281,59.001 C10.982,59.048 10.751,59.355 10.751,59.662 L10.751,64.055 L0.642,64.055 C0.619,64.055 0.596,64.055 0.596,64.055 C0.573,64.055 0.550,64.055 0.527,64.055 C0.228,64.126 -0.002,64.410 -0.002,64.740 L-0.002,82.573 C-0.002,88.808 4.834,93.840 10.820,93.840 L13.307,93.840 C15.909,97.903 20.307,100.642 25.350,100.855 L25.350,108.295 L17.152,108.295 C11.671,108.295 7.227,112.712 6.905,118.286 C6.883,118.664 7.228,119.018 7.596,118.995 C7.757,118.995 7.849,118.972 7.895,118.972 L44.440,118.972 C44.786,118.972 45.108,118.617 45.085,118.263 C44.739,112.689 40.295,108.295 34.838,108.295 L26.640,108.295 L26.640,100.855 C31.683,100.642 36.081,97.903 38.706,93.840 L41.170,93.840 C47.157,93.840 51.992,88.809 51.992,82.573 L51.992,64.741 C51.992,64.410 51.762,64.126 51.463,64.056 C51.440,64.056 51.417,64.056 51.394,64.056 C51.371,64.056 51.348,64.056 51.348,64.056 L41.239,64.056 L41.239,59.663 C41.239,59.308 40.940,59.002 40.594,59.002 L11.419,59.002 C11.396,59.002 11.372,59.002 11.350,59.002 C11.326,59.001 11.304,59.001 11.281,59.001 L11.281,59.001 ZM12.063,60.323 L39.950,60.323 L39.950,85.101 C39.950,93.132 33.732,99.533 25.995,99.533 C18.258,99.533 12.063,93.132 12.063,85.101 L12.063,60.323 ZM1.287,65.402 L10.751,65.402 L10.751,85.101 C10.751,87.770 11.396,90.297 12.524,92.494 L10.820,92.494 C5.547,92.494 1.287,88.101 1.287,82.574 L1.287,65.402 ZM41.239,65.402 L50.680,65.402 L50.680,82.574 C50.680,88.101 46.443,92.494 41.170,92.494 L39.465,92.494 C40.594,90.297 41.239,87.770 41.239,85.101 L41.239,65.402 ZM25.926,66.157 C25.719,66.205 25.512,66.347 25.419,66.536 L22.403,72.794 L15.679,73.762 C15.196,73.833 14.966,74.565 15.333,74.920 L20.215,79.762 L19.041,86.612 C18.972,86.990 19.248,87.368 19.617,87.415 C19.732,87.415 19.870,87.392 19.985,87.320 L25.995,84.108 L32.028,87.321 C32.443,87.558 33.041,87.109 32.949,86.613 L31.798,79.763 L36.680,74.921 C37.024,74.566 36.795,73.835 36.311,73.763 L29.587,72.795 L26.571,66.536 C26.478,66.299 26.202,66.134 25.926,66.157 L25.926,66.157 ZM26.018,68.331 L28.574,73.692 C28.666,73.882 28.850,74.023 29.058,74.047 L34.838,74.897 L30.647,79.053 C30.485,79.218 30.416,79.431 30.462,79.644 L31.452,85.526 L26.294,82.739 C26.110,82.644 25.880,82.644 25.696,82.739 L20.561,85.550 L21.550,79.645 C21.573,79.433 21.504,79.197 21.343,79.054 L17.175,74.897 L22.955,74.047 C23.162,74.024 23.346,73.882 23.438,73.693 L26.018,68.331 ZM17.061,109.618 C17.084,109.618 17.129,109.618 17.153,109.618 L34.838,109.618 C39.374,109.618 43.059,113.091 43.680,117.649 L8.310,117.649 C8.909,113.137 12.547,109.665 17.061,109.618 L17.061,109.618 Z" class="cls-1"/>
  <path d="M68.668,70.991 C65.044,70.991 62.105,73.852 62.000,77.441 L62.000,77.441 L62.000,77.597 L62.000,78.117 L62.000,102.722 L62.000,102.878 L62.000,102.878 C62.105,106.415 65.044,109.327 68.668,109.327 L83.788,109.327 L83.000,112.969 L81.162,112.969 C80.112,112.969 79.272,113.801 79.272,114.842 L79.272,117.079 C79.272,118.118 80.112,119.002 81.162,119.002 L97.910,119.002 C99.012,119.002 99.853,118.118 99.853,117.079 L99.853,114.842 C99.853,113.801 99.012,112.969 97.910,112.969 L96.125,112.969 L95.285,109.327 L103.002,109.327 L103.002,113.593 L103.002,114.998 C103.002,117.235 104.787,119.002 106.992,119.002 L120.957,119.002 C123.215,119.002 125.000,117.235 125.000,114.998 L125.000,113.593 L125.000,92.058 L125.000,90.602 C125.000,88.416 123.215,86.596 120.957,86.596 L117.125,86.596 L117.125,77.597 L117.125,77.441 L117.125,77.441 C117.020,73.852 114.080,70.991 110.457,70.991 L68.668,70.991 L68.668,70.991 ZM68.668,72.395 L110.457,72.395 C113.345,72.395 115.654,74.632 115.707,77.441 L63.418,77.441 C63.470,74.632 65.780,72.395 68.668,72.395 L68.668,72.395 ZM63.418,78.846 L115.707,78.846 L115.707,86.596 L106.992,86.596 C104.787,86.596 103.002,88.417 103.002,90.602 L103.002,92.058 L103.002,101.474 L63.418,101.474 L63.418,78.846 L63.418,78.846 ZM106.992,88.001 L120.957,88.001 C122.427,88.001 123.583,89.144 123.583,90.602 L123.583,91.330 L104.368,91.330 L104.368,90.602 C104.368,89.145 105.522,88.001 106.992,88.001 L106.992,88.001 ZM104.368,92.734 L123.583,92.734 L123.583,112.864 L104.368,112.864 L104.368,92.734 L104.368,92.734 ZM63.418,102.878 L103.002,102.878 L103.002,107.924 L94.497,107.924 C94.444,107.924 94.444,107.924 94.444,107.924 L84.680,107.924 C84.680,107.924 84.680,107.924 84.627,107.924 L68.668,107.924 C65.780,107.924 63.470,105.687 63.418,102.878 L63.418,102.878 ZM85.257,109.327 L93.868,109.327 L94.707,112.969 L84.418,112.969 L85.257,109.327 L85.257,109.327 ZM104.368,114.270 L123.583,114.270 L123.583,114.998 C123.583,116.454 122.427,117.599 120.957,117.599 L106.992,117.599 C105.522,117.599 104.368,116.454 104.368,114.998 L104.368,114.270 L104.368,114.270 ZM81.162,114.323 L97.910,114.323 C98.224,114.323 98.487,114.582 98.487,114.843 L98.487,117.079 C98.487,117.391 98.224,117.600 97.910,117.600 L81.162,117.600 C80.899,117.600 80.637,117.392 80.637,117.079 L80.637,114.843 C80.638,114.582 80.900,114.323 81.162,114.323 L81.162,114.323 Z" class="cls-1"/>
  <path d="M139.711,74.000 C137.104,74.000 135.000,76.150 135.000,78.758 L135.000,85.256 C135.000,85.280 135.000,85.305 135.000,85.329 L135.000,114.242 C135.000,116.875 137.104,119.000 139.711,119.000 L184.289,119.000 C186.895,119.000 189.000,116.875 189.000,114.242 L189.000,85.352 C189.000,85.329 189.000,85.280 189.000,85.256 L189.000,78.758 C189.000,78.590 189.000,78.420 188.976,78.275 C188.738,75.883 186.728,74.000 184.289,74.000 L139.711,74.000 L139.711,74.000 ZM139.735,75.400 L184.241,75.400 C186.154,75.400 187.638,76.874 187.638,78.758 L187.638,84.580 L136.340,84.580 L136.340,78.758 C136.340,78.637 136.364,78.541 136.364,78.420 C136.388,78.299 136.388,78.179 136.412,78.082 C136.721,76.536 138.085,75.400 139.735,75.400 L139.735,75.400 ZM148.846,77.092 C147.436,77.092 146.288,78.251 146.288,79.676 C146.288,81.100 147.435,82.260 148.846,82.260 C150.234,82.260 151.405,81.100 151.405,79.676 C151.405,78.251 150.234,77.092 148.846,77.092 L148.846,77.092 ZM175.153,77.092 C173.743,77.092 172.595,78.251 172.595,79.676 C172.595,81.100 173.743,82.260 175.153,82.260 C176.564,82.260 177.712,81.100 177.712,79.676 C177.712,78.251 176.564,77.092 175.153,77.092 L175.153,77.092 ZM148.846,78.468 C149.517,78.468 150.066,79.000 150.066,79.676 C150.066,80.352 149.516,80.884 148.846,80.884 C148.153,80.884 147.627,80.353 147.627,79.676 C147.627,79.000 148.153,78.468 148.846,78.468 L148.846,78.468 ZM175.153,78.468 C175.848,78.468 176.373,79.000 176.373,79.676 C176.373,80.352 175.848,80.884 175.153,80.884 C174.484,80.884 173.934,80.353 173.934,79.676 C173.934,79.000 174.483,78.468 175.153,78.468 L175.153,78.468 ZM136.339,85.932 L148.153,85.932 L148.153,92.865 L136.339,92.865 L136.339,85.932 L136.339,85.932 ZM149.517,85.932 L161.331,85.932 L161.331,92.865 L149.517,92.865 L149.517,85.932 L149.517,85.932 ZM162.669,85.932 L174.483,85.932 L174.483,92.865 L162.669,92.865 L162.669,85.932 L162.669,85.932 ZM175.823,85.932 L187.637,85.932 L187.637,92.865 L175.823,92.865 L175.823,85.932 L175.823,85.932 ZM136.339,94.217 L148.153,94.217 L148.153,101.078 L136.339,101.078 L136.339,94.217 L136.339,94.217 ZM149.517,94.217 L161.331,94.217 L161.331,101.078 L149.517,101.078 L149.517,94.217 L149.517,94.217 ZM162.669,94.217 L174.483,94.217 L174.483,101.078 L162.669,101.078 L162.669,94.217 L162.669,94.217 ZM175.823,94.217 L187.637,94.217 L187.637,101.078 L175.823,101.078 L175.823,94.217 L175.823,94.217 ZM136.339,102.454 L148.153,102.454 L148.153,109.315 L136.339,109.315 L136.339,102.454 L136.339,102.454 ZM149.517,102.454 L161.331,102.454 L161.331,109.315 L149.517,109.315 L149.517,102.454 L149.517,102.454 ZM162.669,102.454 L174.483,102.454 L174.483,109.315 L162.669,109.315 L162.669,102.454 L162.669,102.454 ZM175.823,102.454 L187.637,102.454 L187.637,109.315 L175.823,109.315 L175.823,102.454 L175.823,102.454 ZM136.339,110.667 L148.153,110.667 L148.153,117.647 L139.711,117.647 C137.846,117.647 136.339,116.125 136.339,114.241 L136.339,110.667 L136.339,110.667 ZM149.517,110.667 L161.331,110.667 L161.331,117.647 L149.517,117.647 L149.517,110.667 L149.517,110.667 ZM162.669,110.667 L174.483,110.667 L174.483,117.647 L162.669,117.647 L162.669,110.667 L162.669,110.667 ZM175.823,110.667 L187.637,110.667 L187.637,114.242 C187.637,116.126 186.154,117.648 184.289,117.648 L175.823,117.648 L175.823,110.667 L175.823,110.667 Z" class="cls-1"/>
  <path d="M202.660,68.997 C200.651,68.997 198.998,70.607 198.998,72.535 L198.998,105.128 C198.998,107.056 200.652,108.643 202.660,108.643 L215.276,108.643 L209.109,117.988 C208.873,118.260 208.968,118.713 209.275,118.917 C209.582,119.099 210.054,118.985 210.219,118.668 L216.669,108.914 C216.716,108.824 216.764,108.733 216.764,108.642 L228.341,108.642 L228.341,118.327 C228.341,118.668 228.648,118.984 229.002,118.984 C229.357,118.984 229.663,118.667 229.663,118.327 L229.663,108.644 L241.216,108.644 C241.216,108.734 241.264,108.825 241.311,108.916 L247.762,118.670 C247.925,118.987 248.398,119.100 248.706,118.919 C249.013,118.715 249.109,118.262 248.872,117.989 L242.707,108.644 L255.347,108.644 C257.354,108.644 259.008,107.056 259.008,105.129 L259.008,72.535 C259.008,70.607 257.353,68.997 255.347,68.997 L202.660,68.997 L202.660,68.997 ZM202.660,70.267 L255.347,70.267 C256.646,70.267 257.685,71.287 257.685,72.535 L257.685,105.128 C257.685,106.375 256.646,107.373 255.347,107.373 L202.660,107.373 C201.360,107.373 200.320,106.375 200.320,105.128 L200.320,72.535 C200.321,71.287 201.361,70.267 202.660,70.267 L202.660,70.267 ZM243.746,73.170 C239.352,73.170 235.760,76.617 235.760,80.859 C235.760,85.101 239.351,88.570 243.746,88.570 C248.164,88.570 251.755,85.101 251.755,80.859 C251.755,76.617 248.163,73.170 243.746,73.170 L243.746,73.170 ZM243.061,74.508 C243.084,74.508 243.084,74.508 243.084,74.508 C243.084,74.530 243.084,74.554 243.084,74.576 L243.084,87.164 C243.084,87.187 243.084,87.210 243.084,87.232 C239.706,86.915 237.083,84.193 237.083,80.860 C237.083,77.524 239.706,74.826 243.061,74.508 L243.061,74.508 ZM244.431,74.508 C247.597,74.803 250.102,77.185 250.408,80.246 C250.386,80.246 250.338,80.246 250.314,80.246 L244.431,80.246 L244.431,74.576 C244.431,74.554 244.431,74.531 244.431,74.508 L244.431,74.508 ZM245.375,81.517 L250.314,81.517 C250.338,81.517 250.386,81.517 250.408,81.517 C250.267,82.810 249.723,83.966 248.920,84.919 C248.897,84.896 248.873,84.896 248.849,84.874 L245.375,81.517 L245.375,81.517 ZM244.431,82.425 L247.927,85.780 C247.952,85.804 247.975,85.826 247.975,85.849 C247.008,86.620 245.778,87.118 244.431,87.232 C244.431,87.210 244.431,87.187 244.431,87.164 L244.431,82.425 L244.431,82.425 ZM206.771,82.991 C206.416,83.014 206.133,83.354 206.157,83.671 C206.204,84.012 206.535,84.284 206.890,84.261 L221.893,84.261 C222.247,84.261 222.578,83.966 222.578,83.626 C222.578,83.286 222.247,82.969 221.893,82.991 L206.889,82.991 C206.866,82.969 206.841,82.969 206.841,82.991 C206.819,82.969 206.794,82.969 206.771,82.991 L206.771,82.991 ZM206.841,89.205 C206.487,89.205 206.180,89.546 206.203,89.863 C206.203,90.203 206.534,90.497 206.888,90.476 L232.641,90.476 C232.996,90.476 233.325,90.181 233.325,89.840 C233.325,89.500 232.995,89.205 232.641,89.205 L206.888,89.205 C206.866,89.205 206.866,89.205 206.841,89.205 L206.841,89.205 ZM206.700,95.444 C206.369,95.489 206.086,95.829 206.133,96.169 C206.180,96.509 206.535,96.758 206.889,96.713 L251.094,96.713 C251.449,96.736 251.755,96.418 251.755,96.078 C251.755,95.738 251.449,95.444 251.094,95.444 L206.889,95.444 C206.866,95.444 206.819,95.444 206.771,95.444 C206.747,95.444 206.724,95.444 206.700,95.444 L206.700,95.444 ZM206.700,101.658 C206.369,101.704 206.086,102.066 206.133,102.383 C206.180,102.724 206.535,102.996 206.889,102.950 L251.094,102.950 C251.449,102.950 251.755,102.632 251.755,102.293 C251.755,101.975 251.449,101.658 251.094,101.658 L206.889,101.658 C206.866,101.658 206.819,101.658 206.771,101.658 C206.747,101.658 206.724,101.658 206.700,101.658 L206.700,101.658 Z" class="cls-1"/>
</svg>
